<svg width="98" height="29" viewBox="0 0 98 29" fill="none" xmlns="http://www.w3.org/2000/svg">
<path d="M17.373 4.73145H10.8398V22.5H6.44531V4.73145H0V1.17188H17.373V4.73145Z" fill="white"/>
<path d="M27.5537 10.6201C26.9775 10.542 26.4697 10.5029 26.0303 10.5029C24.4287 10.5029 23.3789 11.0449 22.8809 12.1289V22.5H18.6475V6.65039H22.6465L22.7637 8.54004C23.6133 7.08496 24.79 6.35742 26.2939 6.35742C26.7627 6.35742 27.2021 6.4209 27.6123 6.54785L27.5537 10.6201Z" fill="white"/>
<path d="M38.3496 22.5C38.1543 22.1191 38.0127 21.6455 37.9248 21.0791C36.8994 22.2217 35.5664 22.793 33.9258 22.793C32.373 22.793 31.084 22.3438 30.0586 21.4453C29.043 20.5469 28.5352 19.4141 28.5352 18.0469C28.5352 16.3672 29.1553 15.0781 30.3955 14.1797C31.6455 13.2812 33.4473 12.8271 35.8008 12.8174H37.749V11.9092C37.749 11.1768 37.5586 10.5908 37.1777 10.1514C36.8066 9.71191 36.2158 9.49219 35.4053 9.49219C34.6924 9.49219 34.1309 9.66309 33.7207 10.0049C33.3203 10.3467 33.1201 10.8154 33.1201 11.4111H28.8867C28.8867 10.4932 29.1699 9.64355 29.7363 8.8623C30.3027 8.08105 31.1035 7.4707 32.1387 7.03125C33.1738 6.58203 34.3359 6.35742 35.625 6.35742C37.5781 6.35742 39.126 6.85059 40.2686 7.83691C41.4209 8.81348 41.9971 10.1904 41.9971 11.9678V18.8379C42.0068 20.3418 42.2168 21.4795 42.627 22.251V22.5H38.3496ZM34.8486 19.5557C35.4736 19.5557 36.0498 19.4189 36.5771 19.1455C37.1045 18.8623 37.4951 18.4863 37.749 18.0176V15.293H36.167C34.0479 15.293 32.9199 16.0254 32.7832 17.4902L32.7686 17.7393C32.7686 18.2666 32.9541 18.7012 33.3252 19.043C33.6963 19.3848 34.2041 19.5557 34.8486 19.5557Z" fill="white"/>
<path d="M50.9473 17.3291L53.8916 6.65039H58.3154L52.9688 22.5H48.9258L43.5791 6.65039H48.0029L50.9473 17.3291Z" fill="white"/>
<path d="M67.2803 22.793C64.9561 22.793 63.0615 22.0801 61.5967 20.6543C60.1416 19.2285 59.4141 17.3291 59.4141 14.9561V14.5459C59.4141 12.9541 59.7217 11.5332 60.3369 10.2832C60.9521 9.02344 61.8213 8.05664 62.9443 7.38281C64.0771 6.69922 65.3662 6.35742 66.8115 6.35742C68.9795 6.35742 70.6836 7.04102 71.9238 8.4082C73.1738 9.77539 73.7988 11.7139 73.7988 14.2236V15.9521H63.7061C63.8428 16.9873 64.2529 17.8174 64.9365 18.4424C65.6299 19.0674 66.5039 19.3799 67.5586 19.3799C69.1895 19.3799 70.4639 18.7891 71.3818 17.6074L73.4619 19.9365C72.8271 20.835 71.9678 21.5381 70.8838 22.0459C69.7998 22.5439 68.5986 22.793 67.2803 22.793ZM66.7969 9.78516C65.957 9.78516 65.2734 10.0684 64.7461 10.6348C64.2285 11.2012 63.8965 12.0117 63.75 13.0664H69.6387V12.7295C69.6191 11.792 69.3652 11.0693 68.877 10.5615C68.3887 10.0439 67.6953 9.78516 66.7969 9.78516Z" fill="white"/>
<path d="M80.6836 22.5H76.4355V0H80.6836V22.5Z" fill="white"/>
<path d="M90.1025 16.5088L93.0322 6.65039H97.5732L91.2012 24.9609L90.8496 25.7959C89.9023 27.8662 88.3398 28.9014 86.1621 28.9014C85.5469 28.9014 84.9219 28.8086 84.2871 28.623V25.415L84.9316 25.4297C85.7324 25.4297 86.3281 25.3076 86.7188 25.0635C87.1191 24.8193 87.4316 24.4141 87.6562 23.8477L88.1543 22.5439L82.6025 6.65039H87.1582L90.1025 16.5088Z" fill="white"/>
</svg>
