<svg width="70" height="70" viewBox="0 0 70 70" fill="none" xmlns="http://www.w3.org/2000/svg">
<circle cx="35" cy="35" r="35" fill="white"/>
<path fill-rule="evenodd" clip-rule="evenodd" d="M41.1247 26C41.1247 22.691 38.3778 20 35 20C31.6222 20 28.8753 22.691 28.8753 26C28.8753 29.309 31.6222 32 35 32C38.3778 32 41.1247 29.309 41.1247 26ZM46.9187 47H44.1871C43.3418 47 42.6559 46.328 42.6559 45.5C42.6559 44.672 43.3418 44 44.1871 44H44.8439C45.9035 44 46.6859 42.9545 46.2848 41.993C44.4305 37.547 40.0759 35 35 35C29.9242 35 25.5695 37.547 23.7153 41.993C23.3141 42.9545 24.0965 44 25.1561 44H25.813C26.6582 44 27.3442 44.672 27.3442 45.5C27.3442 46.328 26.6582 47 25.813 47H23.0814C21.1674 47 19.6607 45.2855 20.0665 43.454C21.1812 38.4155 24.6615 34.697 29.2459 33.0095C27.1543 31.361 25.813 28.835 25.813 26C25.813 20.6735 30.5351 16.4285 36.1009 17.063C40.134 17.522 43.4751 20.6705 44.0799 24.605C44.6005 27.9965 43.1841 31.094 40.7542 33.0095C45.3385 34.697 48.8189 38.4155 49.9335 43.454C50.3393 45.2855 48.8326 47 46.9187 47ZM39.7787 40.196C40.3774 40.7825 40.3774 41.732 39.7787 42.3185L34.9999 47L31.7523 43.8185C31.1536 43.232 31.1536 42.2825 31.7523 41.696C32.3495 41.111 33.3187 41.111 33.9174 41.696L34.9999 42.758L37.6136 40.196C38.2123 39.611 39.1816 39.611 39.7787 40.196Z" fill="black"/>
</svg>
